<?xml version="1.0" encoding="UTF-8" standalone="no"?>
<!DOCTYPE svg PUBLIC "-//W3C//DTD SVG 1.1//EN"
 "http://www.w3.org/Graphics/SVG/1.1/DTD/svg11.dtd">
<!-- Generated by graphviz version 7.1.0 (20230121.1956)
 -->
<!-- Title: G Pages: 1 -->
<svg width="836pt" height="103pt"
 viewBox="0.00 0.00 836.00 103.00" xmlns="http://www.w3.org/2000/svg" xmlns:xlink="http://www.w3.org/1999/xlink">
<g id="graph0" class="graph" transform="scale(1 1) rotate(0) translate(4 99)">
<title>G</title>
<polygon fill="#f2f2f2" stroke="none" points="-4,4 -4,-99 832,-99 832,4 -4,4"/>
<text text-anchor="middle" x="414" y="-79.8" font-family="Times New Roman,serif" font-size="14.00">Cola pendiente de aprobación estudiantes</text>
<!-- 202104782 -->
<g id="node1" class="node">
<title>202104782</title>
<polygon fill="#b2dfee" stroke="#b2dfee" points="828,-72 648,-72 648,0 828,0 828,-72"/>
<text text-anchor="middle" x="738" y="-39.8" font-family="Times New Roman,serif" font-size="14.00">202104782</text>
<text text-anchor="middle" x="738" y="-24.8" font-family="Times New Roman,serif" font-size="14.00">Anthony Zea</text>
</g>
<!-- 201902416 -->
<g id="node2" class="node">
<title>201902416</title>
<polygon fill="#b2dfee" stroke="#b2dfee" points="612,-72 432,-72 432,0 612,0 612,-72"/>
<text text-anchor="middle" x="522" y="-39.8" font-family="Times New Roman,serif" font-size="14.00">201902416</text>
<text text-anchor="middle" x="522" y="-24.8" font-family="Times New Roman,serif" font-size="14.00">Julio Fernández</text>
</g>
<!-- 201902416&#45;&gt;202104782 -->
<g id="edge1" class="edge">
<title>201902416&#45;&gt;202104782</title>
<path fill="none" stroke="black" d="M612.21,-36C620.16,-36 628.24,-36 636.28,-36"/>
<polygon fill="black" stroke="black" points="636.08,-39.5 646.08,-36 636.08,-32.5 636.08,-39.5"/>
</g>
<!-- 202004807 -->
<g id="node3" class="node">
<title>202004807</title>
<polygon fill="#b2dfee" stroke="#b2dfee" points="396,-72 216,-72 216,0 396,0 396,-72"/>
<text text-anchor="middle" x="306" y="-39.8" font-family="Times New Roman,serif" font-size="14.00">202004807</text>
<text text-anchor="middle" x="306" y="-24.8" font-family="Times New Roman,serif" font-size="14.00">Hugo Giron</text>
</g>
<!-- 202004807&#45;&gt;201902416 -->
<g id="edge2" class="edge">
<title>202004807&#45;&gt;201902416</title>
<path fill="none" stroke="black" d="M396.21,-36C404.16,-36 412.24,-36 420.28,-36"/>
<polygon fill="black" stroke="black" points="420.08,-39.5 430.08,-36 420.08,-32.5 420.08,-39.5"/>
</g>
<!-- 202109554 -->
<g id="node4" class="node">
<title>202109554</title>
<polygon fill="#b2dfee" stroke="#b2dfee" points="180,-72 0,-72 0,0 180,0 180,-72"/>
<text text-anchor="middle" x="90" y="-39.8" font-family="Times New Roman,serif" font-size="14.00">202109554</text>
<text text-anchor="middle" x="90" y="-24.8" font-family="Times New Roman,serif" font-size="14.00">Mario Lopez</text>
</g>
<!-- 202109554&#45;&gt;202004807 -->
<g id="edge3" class="edge">
<title>202109554&#45;&gt;202004807</title>
<path fill="none" stroke="black" d="M180.21,-36C188.16,-36 196.24,-36 204.28,-36"/>
<polygon fill="black" stroke="black" points="204.08,-39.5 214.08,-36 204.08,-32.5 204.08,-39.5"/>
</g>
</g>
</svg>
