<?xml version="1.0" encoding="UTF-8" standalone="no"?>
<!DOCTYPE svg PUBLIC "-//W3C//DTD SVG 1.1//EN"
 "http://www.w3.org/Graphics/SVG/1.1/DTD/svg11.dtd">
<!-- Generated by graphviz version 7.1.0 (20230121.1956)
 -->
<!-- Title: G Pages: 1 -->
<svg width="9044pt" height="103pt"
 viewBox="0.00 0.00 9044.00 103.00" xmlns="http://www.w3.org/2000/svg" xmlns:xlink="http://www.w3.org/1999/xlink">
<g id="graph0" class="graph" transform="scale(1 1) rotate(0) translate(4 99)">
<title>G</title>
<polygon fill="#f2f2f2" stroke="none" points="-4,4 -4,-99 9040,-99 9040,4 -4,4"/>
<text text-anchor="middle" x="4518" y="-79.8" font-family="Times New Roman,serif" font-size="14.00">Cola pendiente de aprobación estudiantes</text>
<!-- 201700918 -->
<g id="node1" class="node">
<title>201700918</title>
<polygon fill="#b2dfee" stroke="#b2dfee" points="9036,-72 8856,-72 8856,0 9036,0 9036,-72"/>
<text text-anchor="middle" x="8946" y="-39.8" font-family="Times New Roman,serif" font-size="14.00">201700918</text>
<text text-anchor="middle" x="8946" y="-24.8" font-family="Times New Roman,serif" font-size="14.00">Cristian Suy</text>
</g>
<!-- 201780044 -->
<g id="node2" class="node">
<title>201780044</title>
<polygon fill="#b2dfee" stroke="#b2dfee" points="8820,-72 8640,-72 8640,0 8820,0 8820,-72"/>
<text text-anchor="middle" x="8730" y="-39.8" font-family="Times New Roman,serif" font-size="14.00">201780044</text>
<text text-anchor="middle" x="8730" y="-24.8" font-family="Times New Roman,serif" font-size="14.00">Leonardo Martinez</text>
</g>
<!-- 201780044&#45;&gt;201700918 -->
<g id="edge1" class="edge">
<title>201780044&#45;&gt;201700918</title>
<path fill="none" stroke="black" d="M8820.21,-36C8828.16,-36 8836.24,-36 8844.28,-36"/>
<polygon fill="black" stroke="black" points="8844.08,-39.5 8854.08,-36 8844.08,-32.5 8844.08,-39.5"/>
</g>
<!-- 201403877 -->
<g id="node3" class="node">
<title>201403877</title>
<polygon fill="#b2dfee" stroke="#b2dfee" points="8604,-72 8424,-72 8424,0 8604,0 8604,-72"/>
<text text-anchor="middle" x="8514" y="-39.8" font-family="Times New Roman,serif" font-size="14.00">201403877</text>
<text text-anchor="middle" x="8514" y="-24.8" font-family="Times New Roman,serif" font-size="14.00">Ebany Larios</text>
</g>
<!-- 201403877&#45;&gt;201780044 -->
<g id="edge2" class="edge">
<title>201403877&#45;&gt;201780044</title>
<path fill="none" stroke="black" d="M8604.21,-36C8612.16,-36 8620.24,-36 8628.28,-36"/>
<polygon fill="black" stroke="black" points="8628.08,-39.5 8638.08,-36 8628.08,-32.5 8628.08,-39.5"/>
</g>
<!-- 201902259 -->
<g id="node4" class="node">
<title>201902259</title>
<polygon fill="#b2dfee" stroke="#b2dfee" points="8388,-72 8208,-72 8208,0 8388,0 8388,-72"/>
<text text-anchor="middle" x="8298" y="-39.8" font-family="Times New Roman,serif" font-size="14.00">201902259</text>
<text text-anchor="middle" x="8298" y="-24.8" font-family="Times New Roman,serif" font-size="14.00">Lourdes Reyes</text>
</g>
<!-- 201902259&#45;&gt;201403877 -->
<g id="edge3" class="edge">
<title>201902259&#45;&gt;201403877</title>
<path fill="none" stroke="black" d="M8388.21,-36C8396.16,-36 8404.24,-36 8412.28,-36"/>
<polygon fill="black" stroke="black" points="8412.08,-39.5 8422.08,-36 8412.08,-32.5 8412.08,-39.5"/>
</g>
<!-- 201903549 -->
<g id="node5" class="node">
<title>201903549</title>
<polygon fill="#b2dfee" stroke="#b2dfee" points="8172,-72 7992,-72 7992,0 8172,0 8172,-72"/>
<text text-anchor="middle" x="8082" y="-39.8" font-family="Times New Roman,serif" font-size="14.00">201903549</text>
<text text-anchor="middle" x="8082" y="-24.8" font-family="Times New Roman,serif" font-size="14.00">Alejandro Caballeros</text>
</g>
<!-- 201903549&#45;&gt;201902259 -->
<g id="edge4" class="edge">
<title>201903549&#45;&gt;201902259</title>
<path fill="none" stroke="black" d="M8172.21,-36C8180.16,-36 8188.24,-36 8196.28,-36"/>
<polygon fill="black" stroke="black" points="8196.08,-39.5 8206.08,-36 8196.08,-32.5 8196.08,-39.5"/>
</g>
<!-- 201900570 -->
<g id="node6" class="node">
<title>201900570</title>
<polygon fill="#b2dfee" stroke="#b2dfee" points="7956,-72 7776,-72 7776,0 7956,0 7956,-72"/>
<text text-anchor="middle" x="7866" y="-39.8" font-family="Times New Roman,serif" font-size="14.00">201900570</text>
<text text-anchor="middle" x="7866" y="-24.8" font-family="Times New Roman,serif" font-size="14.00">Jonatan Gonzalez</text>
</g>
<!-- 201900570&#45;&gt;201903549 -->
<g id="edge5" class="edge">
<title>201900570&#45;&gt;201903549</title>
<path fill="none" stroke="black" d="M7956.21,-36C7964.16,-36 7972.24,-36 7980.28,-36"/>
<polygon fill="black" stroke="black" points="7980.08,-39.5 7990.08,-36 7980.08,-32.5 7980.08,-39.5"/>
</g>
<!-- 201700653 -->
<g id="node7" class="node">
<title>201700653</title>
<polygon fill="#b2dfee" stroke="#b2dfee" points="7740,-72 7560,-72 7560,0 7740,0 7740,-72"/>
<text text-anchor="middle" x="7650" y="-39.8" font-family="Times New Roman,serif" font-size="14.00">201700653</text>
<text text-anchor="middle" x="7650" y="-24.8" font-family="Times New Roman,serif" font-size="14.00">Kevyn Girón</text>
</g>
<!-- 201700653&#45;&gt;201900570 -->
<g id="edge6" class="edge">
<title>201700653&#45;&gt;201900570</title>
<path fill="none" stroke="black" d="M7740.21,-36C7748.16,-36 7756.24,-36 7764.28,-36"/>
<polygon fill="black" stroke="black" points="7764.08,-39.5 7774.08,-36 7764.08,-32.5 7764.08,-39.5"/>
</g>
<!-- 202004703 -->
<g id="node8" class="node">
<title>202004703</title>
<polygon fill="#b2dfee" stroke="#b2dfee" points="7524,-72 7344,-72 7344,0 7524,0 7524,-72"/>
<text text-anchor="middle" x="7434" y="-39.8" font-family="Times New Roman,serif" font-size="14.00">202004703</text>
<text text-anchor="middle" x="7434" y="-24.8" font-family="Times New Roman,serif" font-size="14.00">Eduardo Cuevas</text>
</g>
<!-- 202004703&#45;&gt;201700653 -->
<g id="edge7" class="edge">
<title>202004703&#45;&gt;201700653</title>
<path fill="none" stroke="black" d="M7524.21,-36C7532.16,-36 7540.24,-36 7548.28,-36"/>
<polygon fill="black" stroke="black" points="7548.08,-39.5 7558.08,-36 7548.08,-32.5 7548.08,-39.5"/>
</g>
<!-- 202000544 -->
<g id="node9" class="node">
<title>202000544</title>
<polygon fill="#b2dfee" stroke="#b2dfee" points="7308,-72 7128,-72 7128,0 7308,0 7308,-72"/>
<text text-anchor="middle" x="7218" y="-39.8" font-family="Times New Roman,serif" font-size="14.00">202000544</text>
<text text-anchor="middle" x="7218" y="-24.8" font-family="Times New Roman,serif" font-size="14.00">Roberto Gómez</text>
</g>
<!-- 202000544&#45;&gt;202004703 -->
<g id="edge8" class="edge">
<title>202000544&#45;&gt;202004703</title>
<path fill="none" stroke="black" d="M7308.21,-36C7316.16,-36 7324.24,-36 7332.28,-36"/>
<polygon fill="black" stroke="black" points="7332.08,-39.5 7342.08,-36 7332.08,-32.5 7332.08,-39.5"/>
</g>
<!-- 202002940 -->
<g id="node10" class="node">
<title>202002940</title>
<polygon fill="#b2dfee" stroke="#b2dfee" points="7092,-72 6912,-72 6912,0 7092,0 7092,-72"/>
<text text-anchor="middle" x="7002" y="-39.8" font-family="Times New Roman,serif" font-size="14.00">202002940</text>
<text text-anchor="middle" x="7002" y="-24.8" font-family="Times New Roman,serif" font-size="14.00">Sebastián Godoy</text>
</g>
<!-- 202002940&#45;&gt;202000544 -->
<g id="edge9" class="edge">
<title>202002940&#45;&gt;202000544</title>
<path fill="none" stroke="black" d="M7092.21,-36C7100.16,-36 7108.24,-36 7116.28,-36"/>
<polygon fill="black" stroke="black" points="7116.08,-39.5 7126.08,-36 7116.08,-32.5 7116.08,-39.5"/>
</g>
<!-- 201801683 -->
<g id="node11" class="node">
<title>201801683</title>
<polygon fill="#b2dfee" stroke="#b2dfee" points="6876,-72 6696,-72 6696,0 6876,0 6876,-72"/>
<text text-anchor="middle" x="6786" y="-39.8" font-family="Times New Roman,serif" font-size="14.00">201801683</text>
<text text-anchor="middle" x="6786" y="-24.8" font-family="Times New Roman,serif" font-size="14.00">Juan Augusto</text>
</g>
<!-- 201801683&#45;&gt;202002940 -->
<g id="edge10" class="edge">
<title>201801683&#45;&gt;202002940</title>
<path fill="none" stroke="black" d="M6876.21,-36C6884.16,-36 6892.24,-36 6900.28,-36"/>
<polygon fill="black" stroke="black" points="6900.08,-39.5 6910.08,-36 6900.08,-32.5 6900.08,-39.5"/>
</g>
<!-- 201700375 -->
<g id="node12" class="node">
<title>201700375</title>
<polygon fill="#b2dfee" stroke="#b2dfee" points="6660,-72 6480,-72 6480,0 6660,0 6660,-72"/>
<text text-anchor="middle" x="6570" y="-39.8" font-family="Times New Roman,serif" font-size="14.00">201700375</text>
<text text-anchor="middle" x="6570" y="-24.8" font-family="Times New Roman,serif" font-size="14.00">Bryan Montepeque</text>
</g>
<!-- 201700375&#45;&gt;201801683 -->
<g id="edge11" class="edge">
<title>201700375&#45;&gt;201801683</title>
<path fill="none" stroke="black" d="M6660.21,-36C6668.16,-36 6676.24,-36 6684.28,-36"/>
<polygon fill="black" stroke="black" points="6684.08,-39.5 6694.08,-36 6684.08,-32.5 6684.08,-39.5"/>
</g>
<!-- 201900603 -->
<g id="node13" class="node">
<title>201900603</title>
<polygon fill="#b2dfee" stroke="#b2dfee" points="6444,-72 6264,-72 6264,0 6444,0 6444,-72"/>
<text text-anchor="middle" x="6354" y="-39.8" font-family="Times New Roman,serif" font-size="14.00">201900603</text>
<text text-anchor="middle" x="6354" y="-24.8" font-family="Times New Roman,serif" font-size="14.00">Karen Gatica</text>
</g>
<!-- 201900603&#45;&gt;201700375 -->
<g id="edge12" class="edge">
<title>201900603&#45;&gt;201700375</title>
<path fill="none" stroke="black" d="M6444.21,-36C6452.16,-36 6460.24,-36 6468.28,-36"/>
<polygon fill="black" stroke="black" points="6468.08,-39.5 6478.08,-36 6468.08,-32.5 6468.08,-39.5"/>
</g>
<!-- 202113553 -->
<g id="node14" class="node">
<title>202113553</title>
<polygon fill="#b2dfee" stroke="#b2dfee" points="6228,-72 6048,-72 6048,0 6228,0 6228,-72"/>
<text text-anchor="middle" x="6138" y="-39.8" font-family="Times New Roman,serif" font-size="14.00">202113553</text>
<text text-anchor="middle" x="6138" y="-24.8" font-family="Times New Roman,serif" font-size="14.00">Kevin García</text>
</g>
<!-- 202113553&#45;&gt;201900603 -->
<g id="edge13" class="edge">
<title>202113553&#45;&gt;201900603</title>
<path fill="none" stroke="black" d="M6228.21,-36C6236.16,-36 6244.24,-36 6252.28,-36"/>
<polygon fill="black" stroke="black" points="6252.08,-39.5 6262.08,-36 6252.08,-32.5 6252.08,-39.5"/>
</g>
<!-- 202003585 -->
<g id="node15" class="node">
<title>202003585</title>
<polygon fill="#b2dfee" stroke="#b2dfee" points="6012,-72 5832,-72 5832,0 6012,0 6012,-72"/>
<text text-anchor="middle" x="5922" y="-39.8" font-family="Times New Roman,serif" font-size="14.00">202003585</text>
<text text-anchor="middle" x="5922" y="-24.8" font-family="Times New Roman,serif" font-size="14.00">Diego Huite</text>
</g>
<!-- 202003585&#45;&gt;202113553 -->
<g id="edge14" class="edge">
<title>202003585&#45;&gt;202113553</title>
<path fill="none" stroke="black" d="M6012.21,-36C6020.16,-36 6028.24,-36 6036.28,-36"/>
<polygon fill="black" stroke="black" points="6036.08,-39.5 6046.08,-36 6036.08,-32.5 6036.08,-39.5"/>
</g>
<!-- 202112026 -->
<g id="node16" class="node">
<title>202112026</title>
<polygon fill="#b2dfee" stroke="#b2dfee" points="5796,-72 5616,-72 5616,0 5796,0 5796,-72"/>
<text text-anchor="middle" x="5706" y="-39.8" font-family="Times New Roman,serif" font-size="14.00">202112026</text>
<text text-anchor="middle" x="5706" y="-24.8" font-family="Times New Roman,serif" font-size="14.00">Josue Porres</text>
</g>
<!-- 202112026&#45;&gt;202003585 -->
<g id="edge15" class="edge">
<title>202112026&#45;&gt;202003585</title>
<path fill="none" stroke="black" d="M5796.21,-36C5804.16,-36 5812.24,-36 5820.28,-36"/>
<polygon fill="black" stroke="black" points="5820.08,-39.5 5830.08,-36 5820.08,-32.5 5820.08,-39.5"/>
</g>
<!-- 202103216 -->
<g id="node17" class="node">
<title>202103216</title>
<polygon fill="#b2dfee" stroke="#b2dfee" points="5580,-72 5400,-72 5400,0 5580,0 5580,-72"/>
<text text-anchor="middle" x="5490" y="-39.8" font-family="Times New Roman,serif" font-size="14.00">202103216</text>
<text text-anchor="middle" x="5490" y="-24.8" font-family="Times New Roman,serif" font-size="14.00">Sergio Ralda</text>
</g>
<!-- 202103216&#45;&gt;202112026 -->
<g id="edge16" class="edge">
<title>202103216&#45;&gt;202112026</title>
<path fill="none" stroke="black" d="M5580.21,-36C5588.16,-36 5596.24,-36 5604.28,-36"/>
<polygon fill="black" stroke="black" points="5604.08,-39.5 5614.08,-36 5604.08,-32.5 5604.08,-39.5"/>
</g>
<!-- 202101648 -->
<g id="node18" class="node">
<title>202101648</title>
<polygon fill="#b2dfee" stroke="#b2dfee" points="5364,-72 5184,-72 5184,0 5364,0 5364,-72"/>
<text text-anchor="middle" x="5274" y="-39.8" font-family="Times New Roman,serif" font-size="14.00">202101648</text>
<text text-anchor="middle" x="5274" y="-24.8" font-family="Times New Roman,serif" font-size="14.00">Juan Valle</text>
</g>
<!-- 202101648&#45;&gt;202103216 -->
<g id="edge17" class="edge">
<title>202101648&#45;&gt;202103216</title>
<path fill="none" stroke="black" d="M5364.21,-36C5372.16,-36 5380.24,-36 5388.28,-36"/>
<polygon fill="black" stroke="black" points="5388.08,-39.5 5398.08,-36 5388.08,-32.5 5388.08,-39.5"/>
</g>
<!-- 201325511 -->
<g id="node19" class="node">
<title>201325511</title>
<polygon fill="#b2dfee" stroke="#b2dfee" points="5148,-72 4968,-72 4968,0 5148,0 5148,-72"/>
<text text-anchor="middle" x="5058" y="-39.8" font-family="Times New Roman,serif" font-size="14.00">201325511</text>
<text text-anchor="middle" x="5058" y="-24.8" font-family="Times New Roman,serif" font-size="14.00">Jose Melendez</text>
</g>
<!-- 201325511&#45;&gt;202101648 -->
<g id="edge18" class="edge">
<title>201325511&#45;&gt;202101648</title>
<path fill="none" stroke="black" d="M5148.21,-36C5156.16,-36 5164.24,-36 5172.28,-36"/>
<polygon fill="black" stroke="black" points="5172.08,-39.5 5182.08,-36 5172.08,-32.5 5172.08,-39.5"/>
</g>
<!-- 200819325 -->
<g id="node20" class="node">
<title>200819325</title>
<polygon fill="#b2dfee" stroke="#b2dfee" points="4932,-72 4752,-72 4752,0 4932,0 4932,-72"/>
<text text-anchor="middle" x="4842" y="-39.8" font-family="Times New Roman,serif" font-size="14.00">200819325</text>
<text text-anchor="middle" x="4842" y="-24.8" font-family="Times New Roman,serif" font-size="14.00">Ethel Herrarte</text>
</g>
<!-- 200819325&#45;&gt;201325511 -->
<g id="edge19" class="edge">
<title>200819325&#45;&gt;201325511</title>
<path fill="none" stroke="black" d="M4932.21,-36C4940.16,-36 4948.24,-36 4956.28,-36"/>
<polygon fill="black" stroke="black" points="4956.08,-39.5 4966.08,-36 4956.08,-32.5 4956.08,-39.5"/>
</g>
<!-- 201906468 -->
<g id="node21" class="node">
<title>201906468</title>
<polygon fill="#b2dfee" stroke="#b2dfee" points="4716,-72 4536,-72 4536,0 4716,0 4716,-72"/>
<text text-anchor="middle" x="4626" y="-39.8" font-family="Times New Roman,serif" font-size="14.00">201906468</text>
<text text-anchor="middle" x="4626" y="-24.8" font-family="Times New Roman,serif" font-size="14.00">Sergio Guix</text>
</g>
<!-- 201906468&#45;&gt;200819325 -->
<g id="edge20" class="edge">
<title>201906468&#45;&gt;200819325</title>
<path fill="none" stroke="black" d="M4716.21,-36C4724.16,-36 4732.24,-36 4740.28,-36"/>
<polygon fill="black" stroke="black" points="4740.08,-39.5 4750.08,-36 4740.08,-32.5 4740.08,-39.5"/>
</g>
<!-- 201801444 -->
<g id="node22" class="node">
<title>201801444</title>
<polygon fill="#b2dfee" stroke="#b2dfee" points="4500,-72 4320,-72 4320,0 4500,0 4500,-72"/>
<text text-anchor="middle" x="4410" y="-39.8" font-family="Times New Roman,serif" font-size="14.00">201801444</text>
<text text-anchor="middle" x="4410" y="-24.8" font-family="Times New Roman,serif" font-size="14.00">José Donis</text>
</g>
<!-- 201801444&#45;&gt;201906468 -->
<g id="edge21" class="edge">
<title>201801444&#45;&gt;201906468</title>
<path fill="none" stroke="black" d="M4500.21,-36C4508.16,-36 4516.24,-36 4524.28,-36"/>
<polygon fill="black" stroke="black" points="4524.08,-39.5 4534.08,-36 4524.08,-32.5 4524.08,-39.5"/>
</g>
<!-- 201700490 -->
<g id="node23" class="node">
<title>201700490</title>
<polygon fill="#b2dfee" stroke="#b2dfee" points="4284,-72 4104,-72 4104,0 4284,0 4284,-72"/>
<text text-anchor="middle" x="4194" y="-39.8" font-family="Times New Roman,serif" font-size="14.00">201700490</text>
<text text-anchor="middle" x="4194" y="-24.8" font-family="Times New Roman,serif" font-size="14.00">Marvin Castellanos</text>
</g>
<!-- 201700490&#45;&gt;201801444 -->
<g id="edge22" class="edge">
<title>201700490&#45;&gt;201801444</title>
<path fill="none" stroke="black" d="M4284.21,-36C4292.16,-36 4300.24,-36 4308.28,-36"/>
<polygon fill="black" stroke="black" points="4308.08,-39.5 4318.08,-36 4308.08,-32.5 4308.08,-39.5"/>
</g>
<!-- 201907608 -->
<g id="node24" class="node">
<title>201907608</title>
<polygon fill="#b2dfee" stroke="#b2dfee" points="4068,-72 3888,-72 3888,0 4068,0 4068,-72"/>
<text text-anchor="middle" x="3978" y="-39.8" font-family="Times New Roman,serif" font-size="14.00">201907608</text>
<text text-anchor="middle" x="3978" y="-24.8" font-family="Times New Roman,serif" font-size="14.00">Ludwing Lopez</text>
</g>
<!-- 201907608&#45;&gt;201700490 -->
<g id="edge23" class="edge">
<title>201907608&#45;&gt;201700490</title>
<path fill="none" stroke="black" d="M4068.21,-36C4076.16,-36 4084.24,-36 4092.28,-36"/>
<polygon fill="black" stroke="black" points="4092.08,-39.5 4102.08,-36 4092.08,-32.5 4092.08,-39.5"/>
</g>
<!-- 201800673 -->
<g id="node25" class="node">
<title>201800673</title>
<polygon fill="#b2dfee" stroke="#b2dfee" points="3852,-72 3672,-72 3672,0 3852,0 3852,-72"/>
<text text-anchor="middle" x="3762" y="-39.8" font-family="Times New Roman,serif" font-size="14.00">201800673</text>
<text text-anchor="middle" x="3762" y="-24.8" font-family="Times New Roman,serif" font-size="14.00">Sergio Bucaro</text>
</g>
<!-- 201800673&#45;&gt;201907608 -->
<g id="edge24" class="edge">
<title>201800673&#45;&gt;201907608</title>
<path fill="none" stroke="black" d="M3852.21,-36C3860.16,-36 3868.24,-36 3876.28,-36"/>
<polygon fill="black" stroke="black" points="3876.08,-39.5 3886.08,-36 3876.08,-32.5 3876.08,-39.5"/>
</g>
<!-- 200819074 -->
<g id="node26" class="node">
<title>200819074</title>
<polygon fill="#b2dfee" stroke="#b2dfee" points="3636,-72 3456,-72 3456,0 3636,0 3636,-72"/>
<text text-anchor="middle" x="3546" y="-39.8" font-family="Times New Roman,serif" font-size="14.00">200819074</text>
<text text-anchor="middle" x="3546" y="-24.8" font-family="Times New Roman,serif" font-size="14.00">Christian Esquite</text>
</g>
<!-- 200819074&#45;&gt;201800673 -->
<g id="edge25" class="edge">
<title>200819074&#45;&gt;201800673</title>
<path fill="none" stroke="black" d="M3636.21,-36C3644.16,-36 3652.24,-36 3660.28,-36"/>
<polygon fill="black" stroke="black" points="3660.08,-39.5 3670.08,-36 3660.08,-32.5 3660.08,-39.5"/>
</g>
<!-- 202001471 -->
<g id="node27" class="node">
<title>202001471</title>
<polygon fill="#b2dfee" stroke="#b2dfee" points="3420,-72 3240,-72 3240,0 3420,0 3420,-72"/>
<text text-anchor="middle" x="3330" y="-39.8" font-family="Times New Roman,serif" font-size="14.00">202001471</text>
<text text-anchor="middle" x="3330" y="-24.8" font-family="Times New Roman,serif" font-size="14.00">Luis Yaquian</text>
</g>
<!-- 202001471&#45;&gt;200819074 -->
<g id="edge26" class="edge">
<title>202001471&#45;&gt;200819074</title>
<path fill="none" stroke="black" d="M3420.21,-36C3428.16,-36 3436.24,-36 3444.28,-36"/>
<polygon fill="black" stroke="black" points="3444.08,-39.5 3454.08,-36 3444.08,-32.5 3444.08,-39.5"/>
</g>
<!-- 202010023 -->
<g id="node28" class="node">
<title>202010023</title>
<polygon fill="#b2dfee" stroke="#b2dfee" points="3204,-72 3024,-72 3024,0 3204,0 3204,-72"/>
<text text-anchor="middle" x="3114" y="-39.8" font-family="Times New Roman,serif" font-size="14.00">202010023</text>
<text text-anchor="middle" x="3114" y="-24.8" font-family="Times New Roman,serif" font-size="14.00">Luis Lizama</text>
</g>
<!-- 202010023&#45;&gt;202001471 -->
<g id="edge27" class="edge">
<title>202010023&#45;&gt;202001471</title>
<path fill="none" stroke="black" d="M3204.21,-36C3212.16,-36 3220.24,-36 3228.28,-36"/>
<polygon fill="black" stroke="black" points="3228.08,-39.5 3238.08,-36 3228.08,-32.5 3228.08,-39.5"/>
</g>
<!-- 201503617 -->
<g id="node29" class="node">
<title>201503617</title>
<polygon fill="#b2dfee" stroke="#b2dfee" points="2988,-72 2808,-72 2808,0 2988,0 2988,-72"/>
<text text-anchor="middle" x="2898" y="-39.8" font-family="Times New Roman,serif" font-size="14.00">201503617</text>
<text text-anchor="middle" x="2898" y="-24.8" font-family="Times New Roman,serif" font-size="14.00">Olivert Vargas</text>
</g>
<!-- 201503617&#45;&gt;202010023 -->
<g id="edge28" class="edge">
<title>201503617&#45;&gt;202010023</title>
<path fill="none" stroke="black" d="M2988.21,-36C2996.16,-36 3004.24,-36 3012.28,-36"/>
<polygon fill="black" stroke="black" points="3012.08,-39.5 3022.08,-36 3012.08,-32.5 3012.08,-39.5"/>
</g>
<!-- 202001800 -->
<g id="node30" class="node">
<title>202001800</title>
<polygon fill="#b2dfee" stroke="#b2dfee" points="2772,-72 2592,-72 2592,0 2772,0 2772,-72"/>
<text text-anchor="middle" x="2682" y="-39.8" font-family="Times New Roman,serif" font-size="14.00">202001800</text>
<text text-anchor="middle" x="2682" y="-24.8" font-family="Times New Roman,serif" font-size="14.00">José Ibarra</text>
</g>
<!-- 202001800&#45;&gt;201503617 -->
<g id="edge29" class="edge">
<title>202001800&#45;&gt;201503617</title>
<path fill="none" stroke="black" d="M2772.21,-36C2780.16,-36 2788.24,-36 2796.28,-36"/>
<polygon fill="black" stroke="black" points="2796.08,-39.5 2806.08,-36 2796.08,-32.5 2796.08,-39.5"/>
</g>
<!-- 202100299 -->
<g id="node31" class="node">
<title>202100299</title>
<polygon fill="#b2dfee" stroke="#b2dfee" points="2556,-72 2376,-72 2376,0 2556,0 2556,-72"/>
<text text-anchor="middle" x="2466" y="-39.8" font-family="Times New Roman,serif" font-size="14.00">202100299</text>
<text text-anchor="middle" x="2466" y="-24.8" font-family="Times New Roman,serif" font-size="14.00">Mauricio Castro</text>
</g>
<!-- 202100299&#45;&gt;202001800 -->
<g id="edge30" class="edge">
<title>202100299&#45;&gt;202001800</title>
<path fill="none" stroke="black" d="M2556.21,-36C2564.16,-36 2572.24,-36 2580.28,-36"/>
<polygon fill="black" stroke="black" points="2580.08,-39.5 2590.08,-36 2580.08,-32.5 2580.08,-39.5"/>
</g>
<!-- 202010810 -->
<g id="node32" class="node">
<title>202010810</title>
<polygon fill="#b2dfee" stroke="#b2dfee" points="2340,-72 2160,-72 2160,0 2340,0 2340,-72"/>
<text text-anchor="middle" x="2250" y="-39.8" font-family="Times New Roman,serif" font-size="14.00">202010810</text>
<text text-anchor="middle" x="2250" y="-24.8" font-family="Times New Roman,serif" font-size="14.00">Velveth Pérez</text>
</g>
<!-- 202010810&#45;&gt;202100299 -->
<g id="edge31" class="edge">
<title>202010810&#45;&gt;202100299</title>
<path fill="none" stroke="black" d="M2340.21,-36C2348.16,-36 2356.24,-36 2364.28,-36"/>
<polygon fill="black" stroke="black" points="2364.08,-39.5 2374.08,-36 2364.08,-32.5 2364.08,-39.5"/>
</g>
<!-- 201222535 -->
<g id="node33" class="node">
<title>201222535</title>
<polygon fill="#b2dfee" stroke="#b2dfee" points="2124,-72 1944,-72 1944,0 2124,0 2124,-72"/>
<text text-anchor="middle" x="2034" y="-39.8" font-family="Times New Roman,serif" font-size="14.00">201222535</text>
<text text-anchor="middle" x="2034" y="-24.8" font-family="Times New Roman,serif" font-size="14.00">Miguel Sac</text>
</g>
<!-- 201222535&#45;&gt;202010810 -->
<g id="edge32" class="edge">
<title>201222535&#45;&gt;202010810</title>
<path fill="none" stroke="black" d="M2124.21,-36C2132.16,-36 2140.24,-36 2148.28,-36"/>
<polygon fill="black" stroke="black" points="2148.08,-39.5 2158.08,-36 2148.08,-32.5 2148.08,-39.5"/>
</g>
<!-- 202111478 -->
<g id="node34" class="node">
<title>202111478</title>
<polygon fill="#b2dfee" stroke="#b2dfee" points="1908,-72 1728,-72 1728,0 1908,0 1908,-72"/>
<text text-anchor="middle" x="1818" y="-39.8" font-family="Times New Roman,serif" font-size="14.00">202111478</text>
<text text-anchor="middle" x="1818" y="-24.8" font-family="Times New Roman,serif" font-size="14.00">José Panaza</text>
</g>
<!-- 202111478&#45;&gt;201222535 -->
<g id="edge33" class="edge">
<title>202111478&#45;&gt;201222535</title>
<path fill="none" stroke="black" d="M1908.21,-36C1916.16,-36 1924.24,-36 1932.28,-36"/>
<polygon fill="black" stroke="black" points="1932.08,-39.5 1942.08,-36 1932.08,-32.5 1932.08,-39.5"/>
</g>
<!-- 201807411 -->
<g id="node35" class="node">
<title>201807411</title>
<polygon fill="#b2dfee" stroke="#b2dfee" points="1692,-72 1512,-72 1512,0 1692,0 1692,-72"/>
<text text-anchor="middle" x="1602" y="-39.8" font-family="Times New Roman,serif" font-size="14.00">201807411</text>
<text text-anchor="middle" x="1602" y="-24.8" font-family="Times New Roman,serif" font-size="14.00">Pablo Fernández</text>
</g>
<!-- 201807411&#45;&gt;202111478 -->
<g id="edge34" class="edge">
<title>201807411&#45;&gt;202111478</title>
<path fill="none" stroke="black" d="M1692.21,-36C1700.16,-36 1708.24,-36 1716.28,-36"/>
<polygon fill="black" stroke="black" points="1716.08,-39.5 1726.08,-36 1716.08,-32.5 1716.08,-39.5"/>
</g>
<!-- 201019694 -->
<g id="node36" class="node">
<title>201019694</title>
<polygon fill="#b2dfee" stroke="#b2dfee" points="1476,-72 1296,-72 1296,0 1476,0 1476,-72"/>
<text text-anchor="middle" x="1386" y="-39.8" font-family="Times New Roman,serif" font-size="14.00">201019694</text>
<text text-anchor="middle" x="1386" y="-24.8" font-family="Times New Roman,serif" font-size="14.00">Henderson Hernandez</text>
</g>
<!-- 201019694&#45;&gt;201807411 -->
<g id="edge35" class="edge">
<title>201019694&#45;&gt;201807411</title>
<path fill="none" stroke="black" d="M1476.21,-36C1484.16,-36 1492.24,-36 1500.28,-36"/>
<polygon fill="black" stroke="black" points="1500.08,-39.5 1510.08,-36 1500.08,-32.5 1500.08,-39.5"/>
</g>
<!-- 202100239 -->
<g id="node37" class="node">
<title>202100239</title>
<polygon fill="#b2dfee" stroke="#b2dfee" points="1260,-72 1080,-72 1080,0 1260,0 1260,-72"/>
<text text-anchor="middle" x="1170" y="-39.8" font-family="Times New Roman,serif" font-size="14.00">202100239</text>
<text text-anchor="middle" x="1170" y="-24.8" font-family="Times New Roman,serif" font-size="14.00">Aída Mansilla</text>
</g>
<!-- 202100239&#45;&gt;201019694 -->
<g id="edge36" class="edge">
<title>202100239&#45;&gt;201019694</title>
<path fill="none" stroke="black" d="M1260.21,-36C1268.16,-36 1276.24,-36 1284.28,-36"/>
<polygon fill="black" stroke="black" points="1284.08,-39.5 1294.08,-36 1284.08,-32.5 1284.08,-39.5"/>
</g>
<!-- 202105561 -->
<g id="node38" class="node">
<title>202105561</title>
<polygon fill="#b2dfee" stroke="#b2dfee" points="1044,-72 864,-72 864,0 1044,0 1044,-72"/>
<text text-anchor="middle" x="954" y="-39.8" font-family="Times New Roman,serif" font-size="14.00">202105561</text>
<text text-anchor="middle" x="954" y="-24.8" font-family="Times New Roman,serif" font-size="14.00">Jeser Rodas</text>
</g>
<!-- 202105561&#45;&gt;202100239 -->
<g id="edge37" class="edge">
<title>202105561&#45;&gt;202100239</title>
<path fill="none" stroke="black" d="M1044.21,-36C1052.16,-36 1060.24,-36 1068.28,-36"/>
<polygon fill="black" stroke="black" points="1068.08,-39.5 1078.08,-36 1068.08,-32.5 1068.08,-39.5"/>
</g>
<!-- 202104782 -->
<g id="node39" class="node">
<title>202104782</title>
<polygon fill="#b2dfee" stroke="#b2dfee" points="828,-72 648,-72 648,0 828,0 828,-72"/>
<text text-anchor="middle" x="738" y="-39.8" font-family="Times New Roman,serif" font-size="14.00">202104782</text>
<text text-anchor="middle" x="738" y="-24.8" font-family="Times New Roman,serif" font-size="14.00">Anthony Zea</text>
</g>
<!-- 202104782&#45;&gt;202105561 -->
<g id="edge38" class="edge">
<title>202104782&#45;&gt;202105561</title>
<path fill="none" stroke="black" d="M828.21,-36C836.16,-36 844.24,-36 852.28,-36"/>
<polygon fill="black" stroke="black" points="852.08,-39.5 862.08,-36 852.08,-32.5 852.08,-39.5"/>
</g>
<!-- 201902416 -->
<g id="node40" class="node">
<title>201902416</title>
<polygon fill="#b2dfee" stroke="#b2dfee" points="612,-72 432,-72 432,0 612,0 612,-72"/>
<text text-anchor="middle" x="522" y="-39.8" font-family="Times New Roman,serif" font-size="14.00">201902416</text>
<text text-anchor="middle" x="522" y="-24.8" font-family="Times New Roman,serif" font-size="14.00">Julio Fernández</text>
</g>
<!-- 201902416&#45;&gt;202104782 -->
<g id="edge39" class="edge">
<title>201902416&#45;&gt;202104782</title>
<path fill="none" stroke="black" d="M612.21,-36C620.16,-36 628.24,-36 636.28,-36"/>
<polygon fill="black" stroke="black" points="636.08,-39.5 646.08,-36 636.08,-32.5 636.08,-39.5"/>
</g>
<!-- 202004807 -->
<g id="node41" class="node">
<title>202004807</title>
<polygon fill="#b2dfee" stroke="#b2dfee" points="396,-72 216,-72 216,0 396,0 396,-72"/>
<text text-anchor="middle" x="306" y="-39.8" font-family="Times New Roman,serif" font-size="14.00">202004807</text>
<text text-anchor="middle" x="306" y="-24.8" font-family="Times New Roman,serif" font-size="14.00">Hugo Giron</text>
</g>
<!-- 202004807&#45;&gt;201902416 -->
<g id="edge40" class="edge">
<title>202004807&#45;&gt;201902416</title>
<path fill="none" stroke="black" d="M396.21,-36C404.16,-36 412.24,-36 420.28,-36"/>
<polygon fill="black" stroke="black" points="420.08,-39.5 430.08,-36 420.08,-32.5 420.08,-39.5"/>
</g>
<!-- 202109554 -->
<g id="node42" class="node">
<title>202109554</title>
<polygon fill="#b2dfee" stroke="#b2dfee" points="180,-72 0,-72 0,0 180,0 180,-72"/>
<text text-anchor="middle" x="90" y="-39.8" font-family="Times New Roman,serif" font-size="14.00">202109554</text>
<text text-anchor="middle" x="90" y="-24.8" font-family="Times New Roman,serif" font-size="14.00">Mario Lopez</text>
</g>
<!-- 202109554&#45;&gt;202004807 -->
<g id="edge41" class="edge">
<title>202109554&#45;&gt;202004807</title>
<path fill="none" stroke="black" d="M180.21,-36C188.16,-36 196.24,-36 204.28,-36"/>
<polygon fill="black" stroke="black" points="204.08,-39.5 214.08,-36 204.08,-32.5 204.08,-39.5"/>
</g>
</g>
</svg>
