<?xml version="1.0" encoding="UTF-8" standalone="no"?>
<!DOCTYPE svg PUBLIC "-//W3C//DTD SVG 1.1//EN"
 "http://www.w3.org/Graphics/SVG/1.1/DTD/svg11.dtd">
<!-- Generated by graphviz version 7.1.0 (20230121.1956)
 -->
<!-- Title: G Pages: 1 -->
<svg width="1574pt" height="587pt"
 viewBox="0.00 0.00 1574.00 587.00" xmlns="http://www.w3.org/2000/svg" xmlns:xlink="http://www.w3.org/1999/xlink">
<g id="graph0" class="graph" transform="scale(1 1) rotate(0) translate(4 583)">
<title>G</title>
<polygon fill="#f2f2f2" stroke="none" points="-4,4 -4,-583 1570,-583 1570,4 -4,4"/>
<text text-anchor="middle" x="783" y="-563.8" font-family="Times New Roman,serif" font-size="14.00">Lista doble de estudiantes</text>
<g id="clust3" class="cluster">
<title>cluster_0</title>
<polygon fill="#bfbfbf" stroke="blue" points="204,-8 204,-456 372,-456 372,-8 204,-8"/>
<text text-anchor="middle" x="288" y="-15.8" font-family="Times New Roman,serif" font-size="14.00">Bitacora Admin</text>
</g>
<!-- null -->
<g id="node1" class="node">
<title>null</title>
<polygon fill="#b2dfee" stroke="#b2dfee" points="180,-556 0,-556 0,-484 180,-484 180,-556"/>
<text text-anchor="middle" x="90" y="-516.3" font-family="Times New Roman,serif" font-size="14.00">Nil</text>
</g>
<!-- 0 -->
<g id="node2" class="node">
<title>0</title>
<polygon fill="#b2dfee" stroke="#b2dfee" points="378,-556 198,-556 198,-484 378,-484 378,-556"/>
<text text-anchor="middle" x="288" y="-523.8" font-family="Times New Roman,serif" font-size="14.00">0</text>
<text text-anchor="middle" x="288" y="-508.8" font-family="Times New Roman,serif" font-size="14.00"> admin admin</text>
</g>
<!-- null&#45;&gt;0 -->
<g id="edge1" class="edge">
<title>null&#45;&gt;0</title>
<path fill="none" stroke="black" d="M180.49,-493.2C182.47,-493.11 184.44,-493.05 186.41,-493.02"/>
<polygon fill="black" stroke="black" points="186.14,-496.51 196.2,-493.18 186.26,-489.52 186.14,-496.51"/>
</g>
<!-- 0&#45;&gt;null -->
<g id="edge2" class="edge">
<title>0&#45;&gt;null</title>
<path fill="none" stroke="black" d="M197.71,-546.79C195.74,-546.89 193.76,-546.95 191.79,-546.98"/>
<polygon fill="black" stroke="black" points="192.06,-543.48 182.01,-546.82 191.95,-550.48 192.06,-543.48"/>
</g>
<!-- 201403877 -->
<g id="node3" class="node">
<title>201403877</title>
<polygon fill="#b2dfee" stroke="#b2dfee" points="576,-556 396,-556 396,-484 576,-484 576,-556"/>
<text text-anchor="middle" x="486" y="-523.8" font-family="Times New Roman,serif" font-size="14.00">201403877</text>
<text text-anchor="middle" x="486" y="-508.8" font-family="Times New Roman,serif" font-size="14.00"> Ebany Larios</text>
</g>
<!-- 0&#45;&gt;201403877 -->
<g id="edge3" class="edge">
<title>0&#45;&gt;201403877</title>
<path fill="none" stroke="black" d="M378.49,-493.2C380.47,-493.11 382.44,-493.05 384.41,-493.02"/>
<polygon fill="black" stroke="black" points="384.14,-496.51 394.2,-493.18 384.26,-489.52 384.14,-496.51"/>
</g>
<!-- pila0_0 -->
<g id="node9" class="node">
<title>pila0_0</title>
<polygon fill="#b2dfee" stroke="#b2dfee" points="363.5,-448 212.5,-448 212.5,-395 363.5,-395 363.5,-448"/>
<text text-anchor="middle" x="288" y="-432.8" font-family="Times New Roman,serif" font-size="14.00">Se aprobo al estudiante </text>
<text text-anchor="middle" x="288" y="-417.8" font-family="Times New Roman,serif" font-size="14.00"> Alejandro Caballeros</text>
<text text-anchor="middle" x="288" y="-402.8" font-family="Times New Roman,serif" font-size="14.00"> 2023&#45;02&#45;22 19:30:50</text>
</g>
<!-- 0&#45;&gt;pila0_0 -->
<g id="edge19" class="edge">
<title>0&#45;&gt;pila0_0</title>
<path fill="none" stroke="black" d="M288,-483.61C288,-475.83 288,-467.56 288,-459.7"/>
<polygon fill="black" stroke="black" points="291.5,-459.73 288,-449.73 284.5,-459.73 291.5,-459.73"/>
</g>
<!-- 201403877&#45;&gt;0 -->
<g id="edge4" class="edge">
<title>201403877&#45;&gt;0</title>
<path fill="none" stroke="black" d="M395.71,-546.79C393.74,-546.89 391.76,-546.95 389.79,-546.98"/>
<polygon fill="black" stroke="black" points="390.06,-543.48 380.01,-546.82 389.95,-550.48 390.06,-543.48"/>
</g>
<!-- 201700918 -->
<g id="node4" class="node">
<title>201700918</title>
<polygon fill="#b2dfee" stroke="#b2dfee" points="774,-556 594,-556 594,-484 774,-484 774,-556"/>
<text text-anchor="middle" x="684" y="-523.8" font-family="Times New Roman,serif" font-size="14.00">201700918</text>
<text text-anchor="middle" x="684" y="-508.8" font-family="Times New Roman,serif" font-size="14.00"> Cristian Suy</text>
</g>
<!-- 201403877&#45;&gt;201700918 -->
<g id="edge5" class="edge">
<title>201403877&#45;&gt;201700918</title>
<path fill="none" stroke="black" d="M576.49,-493.2C578.47,-493.11 580.44,-493.05 582.41,-493.02"/>
<polygon fill="black" stroke="black" points="582.14,-496.51 592.2,-493.18 582.26,-489.52 582.14,-496.51"/>
</g>
<!-- 201700918&#45;&gt;201403877 -->
<g id="edge6" class="edge">
<title>201700918&#45;&gt;201403877</title>
<path fill="none" stroke="black" d="M593.71,-546.79C591.74,-546.89 589.76,-546.95 587.79,-546.98"/>
<polygon fill="black" stroke="black" points="588.06,-543.48 578.01,-546.82 587.95,-550.48 588.06,-543.48"/>
</g>
<!-- 201780044 -->
<g id="node5" class="node">
<title>201780044</title>
<polygon fill="#b2dfee" stroke="#b2dfee" points="972,-556 792,-556 792,-484 972,-484 972,-556"/>
<text text-anchor="middle" x="882" y="-523.8" font-family="Times New Roman,serif" font-size="14.00">201780044</text>
<text text-anchor="middle" x="882" y="-508.8" font-family="Times New Roman,serif" font-size="14.00"> Leonardo Martinez</text>
</g>
<!-- 201700918&#45;&gt;201780044 -->
<g id="edge7" class="edge">
<title>201700918&#45;&gt;201780044</title>
<path fill="none" stroke="black" d="M774.49,-493.2C776.47,-493.11 778.44,-493.05 780.41,-493.02"/>
<polygon fill="black" stroke="black" points="780.14,-496.51 790.2,-493.18 780.26,-489.52 780.14,-496.51"/>
</g>
<!-- 201780044&#45;&gt;201700918 -->
<g id="edge8" class="edge">
<title>201780044&#45;&gt;201700918</title>
<path fill="none" stroke="black" d="M791.71,-546.79C789.74,-546.89 787.76,-546.95 785.79,-546.98"/>
<polygon fill="black" stroke="black" points="786.06,-543.48 776.01,-546.82 785.95,-550.48 786.06,-543.48"/>
</g>
<!-- 201902259 -->
<g id="node6" class="node">
<title>201902259</title>
<polygon fill="#b2dfee" stroke="#b2dfee" points="1170,-556 990,-556 990,-484 1170,-484 1170,-556"/>
<text text-anchor="middle" x="1080" y="-523.8" font-family="Times New Roman,serif" font-size="14.00">201902259</text>
<text text-anchor="middle" x="1080" y="-508.8" font-family="Times New Roman,serif" font-size="14.00"> Lourdes Reyes</text>
</g>
<!-- 201780044&#45;&gt;201902259 -->
<g id="edge9" class="edge">
<title>201780044&#45;&gt;201902259</title>
<path fill="none" stroke="black" d="M972.49,-493.2C974.47,-493.11 976.44,-493.05 978.41,-493.02"/>
<polygon fill="black" stroke="black" points="978.14,-496.51 988.2,-493.18 978.26,-489.52 978.14,-496.51"/>
</g>
<!-- 201902259&#45;&gt;201780044 -->
<g id="edge10" class="edge">
<title>201902259&#45;&gt;201780044</title>
<path fill="none" stroke="black" d="M989.71,-546.79C987.74,-546.89 985.76,-546.95 983.79,-546.98"/>
<polygon fill="black" stroke="black" points="984.06,-543.48 974.01,-546.82 983.95,-550.48 984.06,-543.48"/>
</g>
<!-- 201903549 -->
<g id="node7" class="node">
<title>201903549</title>
<polygon fill="#b2dfee" stroke="#b2dfee" points="1368,-556 1188,-556 1188,-484 1368,-484 1368,-556"/>
<text text-anchor="middle" x="1278" y="-523.8" font-family="Times New Roman,serif" font-size="14.00">201903549</text>
<text text-anchor="middle" x="1278" y="-508.8" font-family="Times New Roman,serif" font-size="14.00"> Alejandro Caballeros</text>
</g>
<!-- 201902259&#45;&gt;201903549 -->
<g id="edge11" class="edge">
<title>201902259&#45;&gt;201903549</title>
<path fill="none" stroke="black" d="M1170.49,-493.2C1172.47,-493.11 1174.44,-493.05 1176.41,-493.02"/>
<polygon fill="black" stroke="black" points="1176.14,-496.51 1186.2,-493.18 1176.26,-489.52 1176.14,-496.51"/>
</g>
<!-- 201903549&#45;&gt;201902259 -->
<g id="edge12" class="edge">
<title>201903549&#45;&gt;201902259</title>
<path fill="none" stroke="black" d="M1187.71,-546.79C1185.74,-546.89 1183.76,-546.95 1181.79,-546.98"/>
<polygon fill="black" stroke="black" points="1182.06,-543.48 1172.01,-546.82 1181.95,-550.48 1182.06,-543.48"/>
</g>
<!-- null2 -->
<g id="node8" class="node">
<title>null2</title>
<polygon fill="#b2dfee" stroke="#b2dfee" points="1566,-556 1386,-556 1386,-484 1566,-484 1566,-556"/>
<text text-anchor="middle" x="1476" y="-516.3" font-family="Times New Roman,serif" font-size="14.00">Nil</text>
</g>
<!-- 201903549&#45;&gt;null2 -->
<g id="edge14" class="edge">
<title>201903549&#45;&gt;null2</title>
<path fill="none" stroke="black" d="M1368.49,-546.8C1370.47,-546.89 1372.44,-546.95 1374.41,-546.98"/>
<polygon fill="black" stroke="black" points="1374.26,-550.48 1384.2,-546.82 1374.14,-543.49 1374.26,-550.48"/>
</g>
<!-- null2&#45;&gt;201903549 -->
<g id="edge13" class="edge">
<title>null2&#45;&gt;201903549</title>
<path fill="none" stroke="black" d="M1385.71,-493.21C1383.74,-493.11 1381.76,-493.05 1379.79,-493.02"/>
<polygon fill="black" stroke="black" points="1379.95,-489.52 1370.01,-493.18 1380.06,-496.52 1379.95,-489.52"/>
</g>
<!-- pila0_1 -->
<g id="node10" class="node">
<title>pila0_1</title>
<polygon fill="#b2dfee" stroke="#b2dfee" points="363.5,-359 212.5,-359 212.5,-306 363.5,-306 363.5,-359"/>
<text text-anchor="middle" x="288" y="-343.8" font-family="Times New Roman,serif" font-size="14.00">Se aprobo al estudiante </text>
<text text-anchor="middle" x="288" y="-328.8" font-family="Times New Roman,serif" font-size="14.00"> Lourdes Reyes</text>
<text text-anchor="middle" x="288" y="-313.8" font-family="Times New Roman,serif" font-size="14.00"> 2023&#45;02&#45;22 19:30:49</text>
</g>
<!-- pila0_0&#45;&gt;pila0_1 -->
<g id="edge15" class="edge">
<title>pila0_0&#45;&gt;pila0_1</title>
<path fill="none" stroke="black" d="M288,-394.87C288,-387.24 288,-378.72 288,-370.51"/>
<polygon fill="black" stroke="black" points="291.5,-370.76 288,-360.76 284.5,-370.76 291.5,-370.76"/>
</g>
<!-- pila0_2 -->
<g id="node11" class="node">
<title>pila0_2</title>
<polygon fill="#b2dfee" stroke="#b2dfee" points="363.5,-270 212.5,-270 212.5,-217 363.5,-217 363.5,-270"/>
<text text-anchor="middle" x="288" y="-254.8" font-family="Times New Roman,serif" font-size="14.00">Se aprobo al estudiante </text>
<text text-anchor="middle" x="288" y="-239.8" font-family="Times New Roman,serif" font-size="14.00"> Ebany Larios</text>
<text text-anchor="middle" x="288" y="-224.8" font-family="Times New Roman,serif" font-size="14.00"> 2023&#45;02&#45;22 19:30:49</text>
</g>
<!-- pila0_1&#45;&gt;pila0_2 -->
<g id="edge16" class="edge">
<title>pila0_1&#45;&gt;pila0_2</title>
<path fill="none" stroke="black" d="M288,-305.87C288,-298.24 288,-289.72 288,-281.51"/>
<polygon fill="black" stroke="black" points="291.5,-281.76 288,-271.76 284.5,-281.76 291.5,-281.76"/>
</g>
<!-- pila0_3 -->
<g id="node12" class="node">
<title>pila0_3</title>
<polygon fill="#b2dfee" stroke="#b2dfee" points="363.5,-181 212.5,-181 212.5,-128 363.5,-128 363.5,-181"/>
<text text-anchor="middle" x="288" y="-165.8" font-family="Times New Roman,serif" font-size="14.00">Se aprobo al estudiante </text>
<text text-anchor="middle" x="288" y="-150.8" font-family="Times New Roman,serif" font-size="14.00"> Leonardo Martinez</text>
<text text-anchor="middle" x="288" y="-135.8" font-family="Times New Roman,serif" font-size="14.00"> 2023&#45;02&#45;22 19:30:49</text>
</g>
<!-- pila0_2&#45;&gt;pila0_3 -->
<g id="edge17" class="edge">
<title>pila0_2&#45;&gt;pila0_3</title>
<path fill="none" stroke="black" d="M288,-216.87C288,-209.24 288,-200.72 288,-192.51"/>
<polygon fill="black" stroke="black" points="291.5,-192.76 288,-182.76 284.5,-192.76 291.5,-192.76"/>
</g>
<!-- pila0_4 -->
<g id="node13" class="node">
<title>pila0_4</title>
<polygon fill="#b2dfee" stroke="#b2dfee" points="363.5,-92 212.5,-92 212.5,-39 363.5,-39 363.5,-92"/>
<text text-anchor="middle" x="288" y="-76.8" font-family="Times New Roman,serif" font-size="14.00">Se aprobo al estudiante </text>
<text text-anchor="middle" x="288" y="-61.8" font-family="Times New Roman,serif" font-size="14.00"> Cristian Suy</text>
<text text-anchor="middle" x="288" y="-46.8" font-family="Times New Roman,serif" font-size="14.00"> 2023&#45;02&#45;22 19:30:48</text>
</g>
<!-- pila0_3&#45;&gt;pila0_4 -->
<g id="edge18" class="edge">
<title>pila0_3&#45;&gt;pila0_4</title>
<path fill="none" stroke="black" d="M288,-127.87C288,-120.24 288,-111.72 288,-103.51"/>
<polygon fill="black" stroke="black" points="291.5,-103.76 288,-93.76 284.5,-103.76 291.5,-103.76"/>
</g>
</g>
</svg>
