<?xml version="1.0" encoding="UTF-8" standalone="no"?>
<!DOCTYPE svg PUBLIC "-//W3C//DTD SVG 1.1//EN"
 "http://www.w3.org/Graphics/SVG/1.1/DTD/svg11.dtd">
<!-- Generated by graphviz version 7.1.0 (20230121.1956)
 -->
<!-- Title: G Pages: 1 -->
<svg width="711pt" height="464pt"
 viewBox="0.00 0.00 711.00 464.00" xmlns="http://www.w3.org/2000/svg" xmlns:xlink="http://www.w3.org/1999/xlink">
<g id="graph0" class="graph" transform="scale(1 1) rotate(0) translate(4 460)">
<title>G</title>
<polygon fill="#f2f2f2" stroke="none" points="-4,4 -4,-460 707,-460 707,4 -4,4"/>
<text text-anchor="middle" x="351.5" y="-440.8" font-family="Times New Roman,serif" font-size="14.00">Lista doble de estudiantes</text>
<g id="clust5" class="cluster">
<title>cluster_0</title>
<polygon fill="#bfbfbf" stroke="blue" points="34,-8 34,-367 202,-367 202,-8 34,-8"/>
<text text-anchor="middle" x="118" y="-15.8" font-family="Times New Roman,serif" font-size="14.00">Bitacora Admin</text>
</g>
<g id="clust3" class="cluster">
<title>cluster_201709018</title>
<polygon fill="#bfbfbf" stroke="blue" points="249,-193.5 249,-359.5 399,-359.5 399,-193.5 249,-193.5"/>
<text text-anchor="middle" x="324" y="-201.3" font-family="Times New Roman,serif" font-size="14.00">Bitacora 201709018</text>
</g>
<g id="clust4" class="cluster">
<title>cluster_201780044</title>
<polygon fill="#bfbfbf" stroke="blue" points="407,-193.5 407,-359.5 557,-359.5 557,-193.5 407,-193.5"/>
<text text-anchor="middle" x="482" y="-201.3" font-family="Times New Roman,serif" font-size="14.00">Bitacora 201780044</text>
</g>
<!-- null -->
<g id="node1" class="node">
<title>null</title>
<polygon fill="#b2dfee" stroke="#b2dfee" points="54,-432 0,-432 0,-396 54,-396 54,-432"/>
<text text-anchor="middle" x="27" y="-410.3" font-family="Times New Roman,serif" font-size="14.00">Nil</text>
</g>
<!-- 0 -->
<g id="node2" class="node">
<title>0</title>
<polygon fill="#b2dfee" stroke="#b2dfee" points="164,-433 72,-433 72,-395 164,-395 164,-433"/>
<text text-anchor="middle" x="118" y="-417.8" font-family="Times New Roman,serif" font-size="14.00">0</text>
<text text-anchor="middle" x="118" y="-402.8" font-family="Times New Roman,serif" font-size="14.00"> admin admin</text>
</g>
<!-- null&#45;&gt;0 -->
<g id="edge1" class="edge">
<title>null&#45;&gt;0</title>
<path fill="none" stroke="black" d="M54.37,-402.64C56.36,-402.17 58.36,-401.78 60.35,-401.46"/>
<polygon fill="black" stroke="black" points="60.59,-404.95 70.26,-400.63 60,-397.98 60.59,-404.95"/>
</g>
<!-- 0&#45;&gt;null -->
<g id="edge2" class="edge">
<title>0&#45;&gt;null</title>
<path fill="none" stroke="black" d="M71.77,-427.5C69.69,-427.48 67.6,-427.37 65.52,-427.18"/>
<polygon fill="black" stroke="black" points="66.3,-423.76 55.86,-425.6 65.17,-430.67 66.3,-423.76"/>
</g>
<!-- 201403877 -->
<g id="node3" class="node">
<title>201403877</title>
<polygon fill="#b2dfee" stroke="#b2dfee" points="277.5,-433 182.5,-433 182.5,-395 277.5,-395 277.5,-433"/>
<text text-anchor="middle" x="230" y="-417.8" font-family="Times New Roman,serif" font-size="14.00">201403877</text>
<text text-anchor="middle" x="230" y="-402.8" font-family="Times New Roman,serif" font-size="14.00"> Ebany Larios</text>
</g>
<!-- 0&#45;&gt;201403877 -->
<g id="edge3" class="edge">
<title>0&#45;&gt;201403877</title>
<path fill="none" stroke="black" d="M164.38,-400.17C166.49,-399.99 168.61,-399.86 170.73,-399.8"/>
<polygon fill="black" stroke="black" points="170.48,-403.29 180.55,-400.01 170.63,-396.3 170.48,-403.29"/>
</g>
<!-- pila0_0 -->
<g id="node12" class="node">
<title>pila0_0</title>
<polygon fill="#b2dfee" stroke="#b2dfee" points="193.5,-359 42.5,-359 42.5,-306 193.5,-306 193.5,-359"/>
<text text-anchor="middle" x="118" y="-343.8" font-family="Times New Roman,serif" font-size="14.00">Se aprobo al estudiante </text>
<text text-anchor="middle" x="118" y="-328.8" font-family="Times New Roman,serif" font-size="14.00"> Ana Torres</text>
<text text-anchor="middle" x="118" y="-313.8" font-family="Times New Roman,serif" font-size="14.00"> 2023&#45;02&#45;19 22:47:11</text>
</g>
<!-- 0&#45;&gt;pila0_0 -->
<g id="edge20" class="edge">
<title>0&#45;&gt;pila0_0</title>
<path fill="none" stroke="black" d="M118,-394.56C118,-387.45 118,-379.05 118,-370.8"/>
<polygon fill="black" stroke="black" points="121.5,-370.88 118,-360.88 114.5,-370.88 121.5,-370.88"/>
</g>
<!-- 201403877&#45;&gt;0 -->
<g id="edge4" class="edge">
<title>201403877&#45;&gt;0</title>
<path fill="none" stroke="black" d="M182.06,-427.95C179.94,-428.11 177.83,-428.2 175.71,-428.24"/>
<polygon fill="black" stroke="black" points="176.01,-424.75 165.89,-427.88 175.76,-431.74 176.01,-424.75"/>
</g>
<!-- 201709018 -->
<g id="node4" class="node">
<title>201709018</title>
<polygon fill="#b2dfee" stroke="#b2dfee" points="384.5,-433 295.5,-433 295.5,-395 384.5,-395 384.5,-433"/>
<text text-anchor="middle" x="340" y="-417.8" font-family="Times New Roman,serif" font-size="14.00">201709018</text>
<text text-anchor="middle" x="340" y="-402.8" font-family="Times New Roman,serif" font-size="14.00"> Cristian Suy</text>
</g>
<!-- 201403877&#45;&gt;201709018 -->
<g id="edge5" class="edge">
<title>201403877&#45;&gt;201709018</title>
<path fill="none" stroke="black" d="M277.7,-400C279.7,-399.86 281.71,-399.78 283.72,-399.76"/>
<polygon fill="black" stroke="black" points="283.57,-403.25 293.71,-400.18 283.86,-396.26 283.57,-403.25"/>
</g>
<!-- 201709018&#45;&gt;201403877 -->
<g id="edge6" class="edge">
<title>201709018&#45;&gt;201403877</title>
<path fill="none" stroke="black" d="M295.22,-427.76C293.21,-427.95 291.2,-428.09 289.19,-428.17"/>
<polygon fill="black" stroke="black" points="289.26,-424.67 279.21,-428.02 289.16,-431.67 289.26,-424.67"/>
</g>
<!-- 201780044 -->
<g id="node5" class="node">
<title>201780044</title>
<polygon fill="#b2dfee" stroke="#b2dfee" points="529,-433 403,-433 403,-395 529,-395 529,-433"/>
<text text-anchor="middle" x="466" y="-417.8" font-family="Times New Roman,serif" font-size="14.00">201780044</text>
<text text-anchor="middle" x="466" y="-402.8" font-family="Times New Roman,serif" font-size="14.00"> Leonardo Martinez</text>
</g>
<!-- 201709018&#45;&gt;201780044 -->
<g id="edge7" class="edge">
<title>201709018&#45;&gt;201780044</title>
<path fill="none" stroke="black" d="M384.79,-400.94C386.92,-400.66 389.05,-400.43 391.17,-400.25"/>
<polygon fill="black" stroke="black" points="391.21,-403.75 401.04,-399.82 390.9,-396.76 391.21,-403.75"/>
</g>
<!-- pila201709018_0 -->
<g id="node8" class="node">
<title>pila201709018_0</title>
<polygon fill="#b2dfee" stroke="#b2dfee" points="391,-351.5 257,-351.5 257,-313.5 391,-313.5 391,-351.5"/>
<text text-anchor="middle" x="324" y="-336.3" font-family="Times New Roman,serif" font-size="14.00">Cierre de sesion</text>
<text text-anchor="middle" x="324" y="-321.3" font-family="Times New Roman,serif" font-size="14.00"> 2023&#45;02&#45;19 22:47:47</text>
</g>
<!-- 201709018&#45;&gt;pila201709018_0 -->
<g id="edge14" class="edge">
<title>201709018&#45;&gt;pila201709018_0</title>
<path fill="none" stroke="black" d="M336.29,-394.56C334.39,-385.13 332.04,-373.42 329.9,-362.79"/>
<polygon fill="black" stroke="black" points="333.39,-362.44 327.99,-353.32 326.53,-363.82 333.39,-362.44"/>
</g>
<!-- 201780044&#45;&gt;201709018 -->
<g id="edge8" class="edge">
<title>201780044&#45;&gt;201709018</title>
<path fill="none" stroke="black" d="M402.55,-428.25C400.43,-428.24 398.3,-428.19 396.17,-428.08"/>
<polygon fill="black" stroke="black" points="396.57,-424.6 386.3,-427.19 395.94,-431.58 396.57,-424.6"/>
</g>
<!-- 202210001 -->
<g id="node6" class="node">
<title>202210001</title>
<polygon fill="#b2dfee" stroke="#b2dfee" points="631,-433 547,-433 547,-395 631,-395 631,-433"/>
<text text-anchor="middle" x="589" y="-417.8" font-family="Times New Roman,serif" font-size="14.00">202210001</text>
<text text-anchor="middle" x="589" y="-402.8" font-family="Times New Roman,serif" font-size="14.00"> Ana Torres</text>
</g>
<!-- 201780044&#45;&gt;202210001 -->
<g id="edge9" class="edge">
<title>201780044&#45;&gt;202210001</title>
<path fill="none" stroke="black" d="M529.42,-399.76C531.4,-399.79 533.37,-399.87 535.34,-399.98"/>
<polygon fill="black" stroke="black" points="534.84,-403.45 545.14,-400.98 535.54,-396.48 534.84,-403.45"/>
</g>
<!-- pila201780044_0 -->
<g id="node10" class="node">
<title>pila201780044_0</title>
<polygon fill="#b2dfee" stroke="#b2dfee" points="549,-351.5 415,-351.5 415,-313.5 549,-313.5 549,-351.5"/>
<text text-anchor="middle" x="482" y="-336.3" font-family="Times New Roman,serif" font-size="14.00">Cierre de sesion</text>
<text text-anchor="middle" x="482" y="-321.3" font-family="Times New Roman,serif" font-size="14.00"> 2023&#45;02&#45;19 22:47:35</text>
</g>
<!-- 201780044&#45;&gt;pila201780044_0 -->
<g id="edge16" class="edge">
<title>201780044&#45;&gt;pila201780044_0</title>
<path fill="none" stroke="black" d="M469.71,-394.56C471.61,-385.13 473.96,-373.42 476.1,-362.79"/>
<polygon fill="black" stroke="black" points="479.47,-363.82 478.01,-353.32 472.61,-362.44 479.47,-363.82"/>
</g>
<!-- 202210001&#45;&gt;201780044 -->
<g id="edge10" class="edge">
<title>202210001&#45;&gt;201780044</title>
<path fill="none" stroke="black" d="M546.64,-426.87C544.67,-427.15 542.7,-427.39 540.72,-427.59"/>
<polygon fill="black" stroke="black" points="540.72,-424.09 530.93,-428.15 541.12,-431.07 540.72,-424.09"/>
</g>
<!-- null2 -->
<g id="node7" class="node">
<title>null2</title>
<polygon fill="#b2dfee" stroke="#b2dfee" points="703,-432 649,-432 649,-396 703,-396 703,-432"/>
<text text-anchor="middle" x="676" y="-410.3" font-family="Times New Roman,serif" font-size="14.00">Nil</text>
</g>
<!-- 202210001&#45;&gt;null2 -->
<g id="edge12" class="edge">
<title>202210001&#45;&gt;null2</title>
<path fill="none" stroke="black" d="M631.48,-428.24C633.43,-428.27 635.39,-428.22 637.34,-428.07"/>
<polygon fill="black" stroke="black" points="637.69,-431.56 647.03,-426.55 636.61,-424.65 637.69,-431.56"/>
</g>
<!-- null2&#45;&gt;202210001 -->
<g id="edge11" class="edge">
<title>null2&#45;&gt;202210001</title>
<path fill="none" stroke="black" d="M648.52,-401.68C646.66,-401.23 644.8,-400.86 642.93,-400.57"/>
<polygon fill="black" stroke="black" points="643.21,-397.08 632.99,-399.86 642.72,-404.06 643.21,-397.08"/>
</g>
<!-- pila201709018_1 -->
<g id="node9" class="node">
<title>pila201709018_1</title>
<polygon fill="#b2dfee" stroke="#b2dfee" points="391,-262.5 257,-262.5 257,-224.5 391,-224.5 391,-262.5"/>
<text text-anchor="middle" x="324" y="-247.3" font-family="Times New Roman,serif" font-size="14.00">Inicio de sesion</text>
<text text-anchor="middle" x="324" y="-232.3" font-family="Times New Roman,serif" font-size="14.00"> 2023&#45;02&#45;19 22:47:45</text>
</g>
<!-- pila201709018_0&#45;&gt;pila201709018_1 -->
<g id="edge13" class="edge">
<title>pila201709018_0&#45;&gt;pila201709018_1</title>
<path fill="none" stroke="black" d="M324,-313.05C324,-301.75 324,-287.02 324,-274.11"/>
<polygon fill="black" stroke="black" points="327.5,-274.44 324,-264.44 320.5,-274.44 327.5,-274.44"/>
</g>
<!-- pila201780044_1 -->
<g id="node11" class="node">
<title>pila201780044_1</title>
<polygon fill="#b2dfee" stroke="#b2dfee" points="549,-262.5 415,-262.5 415,-224.5 549,-224.5 549,-262.5"/>
<text text-anchor="middle" x="482" y="-247.3" font-family="Times New Roman,serif" font-size="14.00">Inicio de sesion</text>
<text text-anchor="middle" x="482" y="-232.3" font-family="Times New Roman,serif" font-size="14.00"> 2023&#45;02&#45;19 22:47:27</text>
</g>
<!-- pila201780044_0&#45;&gt;pila201780044_1 -->
<g id="edge15" class="edge">
<title>pila201780044_0&#45;&gt;pila201780044_1</title>
<path fill="none" stroke="black" d="M482,-313.05C482,-301.75 482,-287.02 482,-274.11"/>
<polygon fill="black" stroke="black" points="485.5,-274.44 482,-264.44 478.5,-274.44 485.5,-274.44"/>
</g>
<!-- pila0_1 -->
<g id="node13" class="node">
<title>pila0_1</title>
<polygon fill="#b2dfee" stroke="#b2dfee" points="193.5,-270 42.5,-270 42.5,-217 193.5,-217 193.5,-270"/>
<text text-anchor="middle" x="118" y="-254.8" font-family="Times New Roman,serif" font-size="14.00">Se aprobo al estudiante </text>
<text text-anchor="middle" x="118" y="-239.8" font-family="Times New Roman,serif" font-size="14.00"> Ebany Larios</text>
<text text-anchor="middle" x="118" y="-224.8" font-family="Times New Roman,serif" font-size="14.00"> 2023&#45;02&#45;19 22:47:08</text>
</g>
<!-- pila0_0&#45;&gt;pila0_1 -->
<g id="edge17" class="edge">
<title>pila0_0&#45;&gt;pila0_1</title>
<path fill="none" stroke="black" d="M118,-305.87C118,-298.24 118,-289.72 118,-281.51"/>
<polygon fill="black" stroke="black" points="121.5,-281.76 118,-271.76 114.5,-281.76 121.5,-281.76"/>
</g>
<!-- pila0_2 -->
<g id="node14" class="node">
<title>pila0_2</title>
<polygon fill="#b2dfee" stroke="#b2dfee" points="193.5,-181 42.5,-181 42.5,-128 193.5,-128 193.5,-181"/>
<text text-anchor="middle" x="118" y="-165.8" font-family="Times New Roman,serif" font-size="14.00">Se aprobo al estudiante </text>
<text text-anchor="middle" x="118" y="-150.8" font-family="Times New Roman,serif" font-size="14.00"> Cristian Suy</text>
<text text-anchor="middle" x="118" y="-135.8" font-family="Times New Roman,serif" font-size="14.00"> 2023&#45;02&#45;19 22:47:08</text>
</g>
<!-- pila0_1&#45;&gt;pila0_2 -->
<g id="edge18" class="edge">
<title>pila0_1&#45;&gt;pila0_2</title>
<path fill="none" stroke="black" d="M118,-216.87C118,-209.24 118,-200.72 118,-192.51"/>
<polygon fill="black" stroke="black" points="121.5,-192.76 118,-182.76 114.5,-192.76 121.5,-192.76"/>
</g>
<!-- pila0_3 -->
<g id="node15" class="node">
<title>pila0_3</title>
<polygon fill="#b2dfee" stroke="#b2dfee" points="193.5,-92 42.5,-92 42.5,-39 193.5,-39 193.5,-92"/>
<text text-anchor="middle" x="118" y="-76.8" font-family="Times New Roman,serif" font-size="14.00">Se aprobo al estudiante </text>
<text text-anchor="middle" x="118" y="-61.8" font-family="Times New Roman,serif" font-size="14.00"> Leonardo Martinez</text>
<text text-anchor="middle" x="118" y="-46.8" font-family="Times New Roman,serif" font-size="14.00"> 2023&#45;02&#45;19 22:47:08</text>
</g>
<!-- pila0_2&#45;&gt;pila0_3 -->
<g id="edge19" class="edge">
<title>pila0_2&#45;&gt;pila0_3</title>
<path fill="none" stroke="black" d="M118,-127.87C118,-120.24 118,-111.72 118,-103.51"/>
<polygon fill="black" stroke="black" points="121.5,-103.76 118,-93.76 114.5,-103.76 121.5,-103.76"/>
</g>
</g>
</svg>
